<svg xmlns="http://www.w3.org/2000/svg" width="32" height="32" viewBox="0 0 24 24" color="#3b82f6"><path fill="currentColor" d="m8.4 17l3.6-3.6l3.6 3.6l1.4-1.4l-3.6-3.6L17 8.4L15.6 7L12 10.6L8.4 7L7 8.4l3.6 3.6L7 15.6Zm3.6 5q-2.075 0-3.9-.788q-1.825-.787-3.175-2.137q-1.35-1.35-2.137-3.175Q2 14.075 2 12t.788-3.9q.787-1.825 2.137-3.175q1.35-1.35 3.175-2.138Q9.925 2 12 2t3.9.787q1.825.788 3.175 2.138q1.35 1.35 2.137 3.175Q22 9.925 22 12t-.788 3.9q-.787 1.825-2.137 3.175q-1.35 1.35-3.175 2.137Q14.075 22 12 22Z"/></svg>